<svg t="1695710179138" class="icon" viewBox="0 0 1365 1024" version="1.1" xmlns="http://www.w3.org/2000/svg" p-id="7101" width="200" height="200"><path d="M838.72628 639.836488c-77.296481 61.718267-124.863547 92.280107-172.965741 92.280107-46.021136 0-92.517942-28.659157-164.40367-84.669376l-428.103588 376.552781H1278.364882l-434.881895-387.849959-4.875624 3.686447zM331.245152 515.864824A36039.187086 36039.187086 0 0 1 0 257.932412v709.819533a53.512949 53.512949 0 0 0 1.308094 6.302636l431.373824-379.64464c-31.275345-24.734874-64.810127-50.242713-101.436766-78.604576z m1030.837765 468.416676a51.134595 51.134595 0 0 0 3.329695-16.470096V227.786784a96934.068517 96934.068517 0 0 0-453.908722 354.612473z" fill="#1D85ED" p-id="7102"></path><path d="M1280.089188 0H85.323424A118.56091 118.56091 0 0 0 0 85.323424v67.247938c125.874347 100.188131 262.510742 205.60864 378.336546 294.975264 63.858785 49.291372 121.11764 93.588201 166.484729 128.847289 121.771687 95.490884 121.771687 95.490884 246.040646-3.864824 112.377192-89.842295 414.78481-325.120892 574.788526-449.568227v-37.518523A118.382534 118.382534 0 0 0 1280.089188 0z" fill="#1D85ED" p-id="7103"></path></svg>